<?xml version="1.0" encoding="UTF-8" standalone="no"?>
<!DOCTYPE svg PUBLIC "-//W3C//DTD SVG 1.1//EN"
 "http://www.w3.org/Graphics/SVG/1.1/DTD/svg11.dtd">
<!-- Generated by graphviz version 2.43.0 (0)
 -->
<!-- Title: Kappa::ApplicationSpecification Pages: 1 -->
<svg width="282pt" height="226pt"
 viewBox="0.00 0.00 281.50 226.00" xmlns="http://www.w3.org/2000/svg" xmlns:xlink="http://www.w3.org/1999/xlink">
<g id="graph0" class="graph" transform="scale(1 1) rotate(0) translate(4 222)">
<title>Kappa::ApplicationSpecification</title>
<!-- Node1 -->
<g id="Node000001" class="node">
<title>Node1</title>
<g id="a_Node000001"><a xlink:title="Configuration for creating an application.">
<polygon fill="#999999" stroke="#666666" points="170,-19 0,-19 0,0 170,0 170,-19"/>
<text text-anchor="middle" x="85" y="-7" font-family="Helvetica,sans-Serif" font-size="10.00">Kappa::ApplicationSpecification</text>
</a>
</g>
</g>
<!-- Node2 -->
<g id="Node000002" class="node">
<title>Node2</title>
<g id="a_Node000002"><a xlink:title=" ">
<polygon fill="white" stroke="#666666" points="117.5,-151 52.5,-151 52.5,-132 117.5,-132 117.5,-151"/>
<text text-anchor="middle" x="85" y="-139" font-family="Helvetica,sans-Serif" font-size="10.00">std::string</text>
</a>
</g>
</g>
<!-- Node2&#45;&gt;Node1 -->
<g id="edge1_Node000001_Node000002" class="edge">
<title>Node2&#45;&gt;Node1</title>
<g id="a_edge1_Node000001_Node000002"><a xlink:title=" ">
<path fill="none" stroke="#9a32cd" stroke-dasharray="5,2" d="M81.6,-121.73C79.28,-106.68 76.81,-85.01 78,-66 79.05,-49.33 81.85,-30.01 83.57,-19.12"/>
<polygon fill="#9a32cd" stroke="#9a32cd" points="78.19,-122.51 83.29,-131.8 85.09,-121.36 78.19,-122.51"/>
</a>
</g>
<text text-anchor="middle" x="93.5" y="-73" font-family="Helvetica,sans-Serif" font-size="10.00" fill="grey"> name</text>
</g>
<!-- Node4 -->
<g id="Node000004" class="node">
<title>Node4</title>
<g id="a_Node000004"><a xlink:href="structKappa_1_1WindowSpecification.html" target="_top" xlink:title="Configuration for creating a window.">
<polygon fill="white" stroke="#666666" points="273.5,-85 118.5,-85 118.5,-66 273.5,-66 273.5,-85"/>
<text text-anchor="middle" x="196" y="-73" font-family="Helvetica,sans-Serif" font-size="10.00">Kappa::WindowSpecification</text>
</a>
</g>
</g>
<!-- Node2&#45;&gt;Node4 -->
<g id="edge4_Node000004_Node000002" class="edge">
<title>Node2&#45;&gt;Node4</title>
<g id="a_edge4_Node000004_Node000002"><a xlink:title=" ">
<path fill="none" stroke="#9a32cd" stroke-dasharray="5,2" d="M108.66,-126.86C130.51,-114.26 162.32,-95.92 180.91,-85.2"/>
<polygon fill="#9a32cd" stroke="#9a32cd" points="106.88,-123.84 99.97,-131.87 110.38,-129.91 106.88,-123.84"/>
</a>
</g>
<text text-anchor="middle" x="158.5" y="-106" font-family="Helvetica,sans-Serif" font-size="10.00" fill="grey"> title</text>
</g>
<!-- Node3 -->
<g id="Node000003" class="node">
<title>Node3</title>
<g id="a_Node000003"><a xlink:title=" ">
<polygon fill="white" stroke="#666666" points="137,-218 33,-218 33,-188 137,-188 137,-218"/>
<text text-anchor="start" x="41" y="-206" font-family="Helvetica,sans-Serif" font-size="10.00">std::basic_string&lt;</text>
<text text-anchor="middle" x="85" y="-195" font-family="Helvetica,sans-Serif" font-size="10.00"> Char &gt;</text>
</a>
</g>
</g>
<!-- Node3&#45;&gt;Node2 -->
<g id="edge2_Node000002_Node000003" class="edge">
<title>Node3&#45;&gt;Node2</title>
<g id="a_edge2_Node000002_Node000003"><a xlink:title=" ">
<path fill="none" stroke="#63b8ff" d="M85,-177.79C85,-168.36 85,-158.15 85,-151.16"/>
<polygon fill="#63b8ff" stroke="#63b8ff" points="81.5,-177.9 85,-187.9 88.5,-177.9 81.5,-177.9"/>
</a>
</g>
</g>
<!-- Node4&#45;&gt;Node1 -->
<g id="edge3_Node000001_Node000004" class="edge">
<title>Node4&#45;&gt;Node1</title>
<g id="a_edge3_Node000001_Node000004"><a xlink:title=" ">
<path fill="none" stroke="#9a32cd" stroke-dasharray="5,2" d="M172.34,-60.86C150.49,-48.26 118.68,-29.92 100.09,-19.2"/>
<polygon fill="#9a32cd" stroke="#9a32cd" points="170.62,-63.91 181.03,-65.87 174.12,-57.84 170.62,-63.91"/>
</a>
</g>
<text text-anchor="middle" x="198.5" y="-40" font-family="Helvetica,sans-Serif" font-size="10.00" fill="grey"> windowSpecification</text>
</g>
</g>
</svg>
